<svg width="180" height="180" viewBox="0 0 180 180" fill="none" xmlns="http://www.w3.org/2000/svg">
<rect width="180" height="180" rx="36" fill="#FF7E79"/>
<path d="M101.808 106.497H85.284C84.6382 111.04 85.1014 115.672 86.634 119.997C88.5342 123.702 91.2759 126.911 94.6395 129.366C98.1386 131.883 102.083 133.716 106.263 134.766C110.698 135.918 115.262 136.496 119.844 136.485C124.996 136.57 130.133 135.89 135.086 134.469C139.087 133.334 142.831 131.434 146.111 128.876C148.989 126.575 151.284 123.629 152.811 120.276C154.329 116.88 155.096 113.196 155.061 109.476C155.235 105.363 154.183 101.29 152.037 97.7761C150.165 94.8816 147.721 92.4007 144.855 90.4861C142.279 88.7576 139.461 87.4187 136.494 86.5126C133.686 85.6816 131.492 85.1086 129.911 84.7936C124.613 83.4496 120.323 82.3426 117.041 81.4726C114.401 80.8236 111.823 79.9504 109.332 78.8626C107.843 78.2842 106.549 77.2967 105.597 76.0141C104.911 74.7785 104.582 73.376 104.648 71.9641C104.586 70.3792 105 68.8122 105.836 67.4641C106.629 66.287 107.657 65.2865 108.855 64.5256C110.105 63.725 111.491 63.1621 112.946 62.8651C114.425 62.5521 115.933 62.3937 117.446 62.3926C119.575 62.3773 121.701 62.5763 123.791 62.9866C125.619 63.3388 127.369 64.022 128.952 65.0026C130.469 65.9763 131.709 67.3247 132.552 68.9176C133.541 70.8749 134.088 73.0256 134.154 75.2176H152.181C152.311 70.879 151.354 66.5768 149.396 62.7031C147.605 59.3084 145.036 56.3861 141.899 54.1756C138.614 51.9065 134.932 50.2761 131.045 49.3696C126.872 48.3751 122.595 47.8827 118.305 47.9026C114.458 47.9102 110.63 48.4292 106.92 49.4461C103.261 50.4023 99.8016 52.0039 96.705 54.1756C93.7234 56.2895 91.2361 59.0255 89.415 62.1946C87.4901 65.6548 86.5268 69.5672 86.625 73.5256C86.5249 76.9566 87.2796 80.3587 88.821 83.4256C90.2259 86.0862 92.1874 88.413 94.572 90.2476C97.03 92.1131 99.7465 93.6108 102.636 94.6936C105.659 95.8463 108.749 96.817 111.888 97.6006C114.972 98.4706 118.017 99.2611 121.023 99.9721C123.769 100.604 126.464 101.437 129.087 102.465C131.218 103.264 133.172 104.473 134.838 106.025C135.571 106.75 136.145 107.621 136.523 108.581C136.901 109.541 137.075 110.569 137.034 111.6C137.11 113.499 136.523 115.365 135.374 116.879C134.257 118.27 132.836 119.386 131.22 120.141C129.532 120.94 127.732 121.481 125.883 121.743C124.116 122.009 122.333 122.148 120.546 122.157C118.146 122.16 115.755 121.857 113.432 121.257C111.282 120.729 109.25 119.802 107.442 118.526C105.717 117.27 104.315 115.623 103.352 113.72C102.264 111.471 101.734 108.994 101.808 106.497V106.497Z" fill="#FEBFB8"/>
<path d="M86.7959 75.1816H104.994C104.312 70.5582 102.705 66.1197 100.269 62.1315C98.2221 58.4396 95.4591 55.1932 92.1419 52.5826C88.7983 49.9817 85.0197 47.9949 80.9819 46.7145C76.7068 45.3513 72.2435 44.6709 67.7564 44.6985C61.7476 44.6029 55.7862 45.7743 50.2604 48.1365C45.251 50.3061 40.7769 53.5453 37.1519 57.627C33.5265 61.774 30.7459 66.5892 28.9664 71.8021C27.0268 77.4695 26.0636 83.4251 26.1179 89.415C26.0694 95.2884 27.033 101.126 28.9664 106.673C30.7468 111.818 33.5288 116.559 37.1519 120.623C40.7966 124.638 45.269 127.814 50.2604 129.933C55.7961 132.257 61.7535 133.408 67.7564 133.313C72.6418 133.368 77.4991 132.566 82.1069 130.941C86.326 129.437 90.1983 127.096 93.4919 124.061C96.8224 120.998 99.4876 117.284 101.322 113.148C101.843 110.95 102.065 108.692 101.983 106.434H85.2704C84.2177 108.683 82.8125 110.749 81.1079 112.554C77.4409 115.855 72.6989 117.71 67.7654 117.774C64.0584 117.888 60.3839 117.051 57.0914 115.344C54.2368 113.785 51.7973 111.564 49.9769 108.869C48.1248 106.104 46.7793 103.032 46.0034 99.7966C45.1686 96.4009 44.75 92.9163 44.7569 89.4196C44.7473 85.7831 45.1657 82.1582 46.0034 78.6196C46.7634 75.3044 48.109 72.1514 49.9769 69.309C51.7848 66.5899 54.2263 64.3506 57.0914 62.784C60.3839 61.0768 64.0584 60.2403 67.7654 60.354C70.0085 60.3446 72.2362 60.7253 74.3489 61.479C76.3916 62.2026 78.2967 63.2678 79.9829 64.629C81.6205 65.9463 83.0247 67.53 84.1364 69.3135C85.4085 71.0708 86.3131 73.0666 86.7959 75.1816V75.1816Z" fill="#FDFFF8"/>
</svg>
