<svg viewBox="0 0 1080 1080" fill="none" xmlns="http://www.w3.org/2000/svg">
<rect width="1080" height="1080" fill="#FF7E79"/>
<path d="M610.848 638.982H511.704C507.829 666.24 510.608 694.031 519.804 719.982C531.205 742.214 547.656 761.467 567.837 776.196C588.832 791.299 612.495 802.293 637.578 808.596C664.187 815.509 691.573 818.975 719.064 818.91C749.977 819.418 780.795 815.342 810.513 806.814C834.522 800.001 856.986 788.604 876.663 773.253C893.932 759.451 907.705 741.774 916.866 721.656C925.971 701.277 930.576 679.175 930.366 656.856C931.412 632.175 925.097 607.739 912.222 586.656C900.993 569.289 886.328 554.403 869.13 542.916C853.672 532.545 836.768 524.512 818.964 519.075C802.116 514.089 788.949 510.651 779.463 508.761C747.675 500.697 721.935 494.055 702.243 488.835C686.409 484.941 670.935 479.702 655.992 473.175C647.06 469.705 639.291 463.78 633.582 456.084C629.463 448.67 627.49 440.256 627.885 431.784C627.519 422.275 630.001 412.873 635.013 404.784C639.773 397.721 645.941 391.719 653.13 387.153C660.628 382.35 668.949 378.972 677.673 377.19C686.551 375.312 695.599 374.362 704.673 374.355C717.451 374.264 730.205 375.458 742.743 377.919C753.716 380.032 764.212 384.132 773.712 390.015C782.812 395.857 790.252 403.948 795.312 413.505C801.246 425.249 804.527 438.153 804.924 451.305H913.086C913.868 425.274 908.122 399.46 896.373 376.218C885.63 355.85 870.215 338.316 851.391 325.053C831.685 311.439 809.593 301.656 786.267 296.217C761.23 290.25 735.569 287.295 709.83 287.415C686.75 287.461 663.779 290.575 641.52 296.676C619.565 302.413 598.809 312.023 580.23 325.053C562.34 337.737 547.417 354.153 536.49 373.167C524.941 393.928 519.161 417.403 519.75 441.153C519.149 461.739 523.677 482.152 532.926 500.553C541.355 516.517 553.124 530.477 567.432 541.485C582.18 552.678 598.479 561.664 615.816 568.161C633.956 575.077 652.493 580.902 671.328 585.603C689.832 590.823 708.102 595.566 726.138 599.832C742.611 603.624 758.783 608.624 774.522 614.79C787.31 619.584 799.034 626.84 809.028 636.147C813.427 640.502 816.87 645.727 819.139 651.486C821.407 657.246 822.451 663.415 822.204 669.6C822.66 680.993 819.138 692.191 812.241 701.271C805.543 709.618 797.017 716.316 787.32 720.846C777.19 725.642 766.395 728.883 755.298 730.458C744.698 732.056 733.996 732.886 723.276 732.942C708.876 732.959 694.532 731.144 680.589 727.542C667.692 724.372 655.502 718.813 644.652 711.153C634.304 703.62 625.892 693.737 620.109 682.317C613.583 668.827 610.407 653.961 610.848 638.982Z" fill="#FEBFB8"/>
<path d="M520.776 451.089H629.964C625.873 423.349 616.231 396.718 601.614 372.789C589.333 350.637 572.755 331.159 552.852 315.495C532.791 299.89 510.119 287.969 485.892 280.287C460.242 272.108 433.461 268.025 406.539 268.191C370.487 267.617 334.718 274.646 301.563 288.819C271.507 301.836 244.662 321.271 222.912 345.762C201.16 370.644 184.476 399.535 173.799 430.812C162.162 464.817 156.383 500.55 156.708 536.49C156.417 571.73 162.199 606.757 173.799 640.035C184.481 670.905 201.174 699.353 222.912 723.735C244.78 747.825 271.615 766.884 301.563 779.598C334.777 793.541 370.522 800.445 406.539 799.875C435.852 800.21 464.996 795.394 492.642 785.646C517.957 776.619 541.19 762.578 560.952 744.363C580.935 725.989 596.926 703.703 607.932 678.888C611.057 665.699 612.392 652.149 611.901 638.604H511.623C505.307 652.096 496.875 664.492 486.648 675.324C464.646 695.13 436.194 706.261 406.593 706.644C384.351 707.327 362.304 702.307 342.549 692.064C325.422 682.707 310.784 669.385 299.862 653.211C288.749 636.625 280.676 618.194 276.021 598.779C271.012 578.405 268.501 557.498 268.542 536.517C268.484 514.698 270.995 492.949 276.021 471.717C280.581 451.826 288.655 432.908 299.862 415.854C310.71 399.539 325.359 386.103 342.549 376.704C362.304 366.461 384.351 361.441 406.593 362.124C420.052 362.067 433.418 364.351 446.094 368.874C458.35 373.216 469.781 379.606 479.898 387.774C489.724 395.678 498.149 405.179 504.819 415.881C512.452 426.424 517.879 438.399 520.776 451.089Z" fill="#FDFFF8"/>
</svg>
